<svg xmlns="http://www.w3.org/2000/svg" xmlns:xlink="http://www.w3.org/1999/xlink" id="exportSvg" width="700" height="400"><defs/><g><g id="__svelte-dw-svg" clip-path="url(#rect-mask-__svelte-dw-m4Sew3aLcacy-KK4_RlXx)"><clipPath id="rect-mask-__svelte-dw-m4Sew3aLcacy-KK4_RlXx"><rect x="0" y="0" width="700" height="400"/></clipPath><g id="header-svg"><text transform="translate(0, 0)"><tspan fill="rgb(0,0,0)" x="0" y="22" style="font-family: Roboto; font-weight: 700; font-stretch: 100%; font-size: 22px;">Median Asking Rent between 2010-2022</tspan></text></g><g id="chart-svg"><g id="svg-main-svg" clip-path="url(#rect-mask-svg-main-h32q6PthdS5VDfDq7NGla)" transform="translate(0.00000, 35.00000)"><clipPath id="rect-mask-svg-main-h32q6PthdS5VDfDq7NGla"><rect x="0" y="0" width="700" height="332"/></clipPath><g id="group-svg" transform="translate(35.5703125, 6)"><g id="y-grid-lines-svg grid-y-svg datawrapper-sLP7h-1fn7900-svg"><line x1="0" x2="584.4296875" y1="0" y2="0" transform="translate(0, 306)" style="fill: none; stroke-width: 1; stroke-linejoin: miter; stroke-linecap: butt; stroke: rgb(231, 231, 231);"/><line x1="0" x2="584.4296875" y1="0" y2="0" transform="translate(0, 281.52)" style="fill: none; stroke-width: 1; stroke-linejoin: miter; stroke-linecap: butt; stroke: rgb(231, 231, 231);"/><line x1="0" x2="584.4296875" y1="0" y2="0" transform="translate(0, 257.04)" style="fill: none; stroke-width: 1; stroke-linejoin: miter; stroke-linecap: butt; stroke: rgb(231, 231, 231);"/><line x1="0" x2="584.4296875" y1="0" y2="0" transform="translate(0, 232.56)" style="fill: none; stroke-width: 1; stroke-linejoin: miter; stroke-linecap: butt; stroke: rgb(231, 231, 231);"/><line x1="0" x2="584.4296875" y1="0" y2="0" transform="translate(0, 208.07999999999998)" style="fill: none; stroke-width: 1; stroke-linejoin: miter; stroke-linecap: butt; stroke: rgb(231, 231, 231);"/><line x1="0" x2="584.4296875" y1="0" y2="0" transform="translate(0, 183.6)" style="fill: none; stroke-width: 1; stroke-linejoin: miter; stroke-linecap: butt; stroke: rgb(231, 231, 231);"/><line x1="0" x2="584.4296875" y1="0" y2="0" transform="translate(0, 159.12)" style="fill: none; stroke-width: 1; stroke-linejoin: miter; stroke-linecap: butt; stroke: rgb(231, 231, 231);"/><line x1="0" x2="584.4296875" y1="0" y2="0" transform="translate(0, 134.64)" style="fill: none; stroke-width: 1; stroke-linejoin: miter; stroke-linecap: butt; stroke: rgb(231, 231, 231);"/><line x1="0" x2="584.4296875" y1="0" y2="0" transform="translate(0, 110.16)" style="fill: none; stroke-width: 1; stroke-linejoin: miter; stroke-linecap: butt; stroke: rgb(231, 231, 231);"/><line x1="0" x2="584.4296875" y1="0" y2="0" transform="translate(0, 85.68)" style="fill: none; stroke-width: 1; stroke-linejoin: miter; stroke-linecap: butt; stroke: rgb(231, 231, 231);"/><line x1="0" x2="584.4296875" y1="0" y2="0" transform="translate(0, 61.19999999999999)" style="fill: none; stroke-width: 1; stroke-linejoin: miter; stroke-linecap: butt; stroke: rgb(231, 231, 231);"/><line x1="0" x2="584.4296875" y1="0" y2="0" transform="translate(0, 36.71999999999997)" style="fill: none; stroke-width: 1; stroke-linejoin: miter; stroke-linecap: butt; stroke: rgb(231, 231, 231);"/><line x1="0" x2="584.4296875" y1="0" y2="0" transform="translate(0, 12.240000000000009)" style="fill: none; stroke-width: 1; stroke-linejoin: miter; stroke-linecap: butt; stroke: rgb(231, 231, 231);"/></g><g id="lines-svg"><g id="NYC-svg Average-svg"><path d="M9.669109568846997,226.44L13.532769806887623,232.56L17.0225274412469,232.56L20.886187679287527,226.44L24.625213716101037,220.932L28.488873954141667,220.32L32.22789999095518,214.2L36.0915602289958,214.2L39.95522046703643,205.01999999999998L43.694246503849946,205.01999999999998L47.55790674189057,208.07999999999998L51.296932778704075,214.2L55.160593016744706,214.2L59.024253254785336,214.812L62.51401088914461,214.2L66.37767112718524,208.692L70.11669716399875,208.07999999999998L73.98035740203937,196.452L77.71938343885289,195.84L81.58304367689351,189.72L85.44670391493413,183.6L89.18572995174765,183.6L93.04939018978828,183.6L96.7884162266018,184.212L100.65207646464242,188.6184L104.51573670268304,192.78L108.13012853826945,189.72L111.99378877631007,184.212L115.73281481312357,184.212L119.5964750511642,184.212L123.3355010879777,184.212L127.19916132601833,183.6L131.06282156405896,177.48000000000002L134.8018476008725,183.6L138.6655078389131,183.6L142.40453387572663,183.6L146.26819411376724,184.212L150.13185435180787,183.6L153.62161198616712,183.6L157.48527222420776,184.212L161.2242982610213,184.212L165.08795849906193,184.212L168.82698453587543,184.212L172.69064477391606,183.6L176.55430501195667,183.6L180.2933310487702,184.212L184.1569912868108,189.72L187.89601732362433,191.55599999999998L191.75967756166494,195.84L195.62333779970558,195.84L199.11309543406486,195.84L202.97675567210547,189.72L206.715781708919,189.72L210.5794419469596,194.49360000000001L214.31846798377313,197.1864L218.18212822181374,197.06400000000002L222.04578845985438,201.95999999999998L225.78481449666788,205.01999999999998L229.64847473470851,208.07999999999998L233.387500771522,208.07999999999998L237.25116100956265,208.07999999999998L241.1148212476033,208.07999999999998L244.60457888196254,208.07999999999998L248.4682391200032,201.95999999999998L252.2072651568167,201.95999999999998L256.07092539485734,195.9624L259.80995143167087,195.84L263.6736116697115,189.72L267.5372719077521,195.84L271.2762979445656,196.452L275.1399581826062,205.01999999999998L278.87898421941975,201.95999999999998L282.74264445746036,200.61360000000002L286.60630469550097,196.452L290.2206965310874,195.84L294.084356769128,192.78L297.82338280594155,189.72L301.68704304398216,186.66L305.4260690807957,189.2304L309.2897293188363,189.72L313.15338955687696,195.84L316.89241559369043,199.512L320.7560758317311,208.07999999999998L324.49510186854457,208.07999999999998L328.35876210658523,214.2L332.22242234462584,214.2L335.7121799789851,220.32L339.57584021702576,214.2L343.3148662538392,211.752L347.1785264918799,208.692L350.91755252869336,208.07999999999998L354.78121276673403,201.348L358.64487300477464,208.07999999999998L362.38389904158817,208.692L366.2475592796288,220.32L369.9865853164423,220.32L373.8502455544829,220.932L377.7139057925235,224.3592L381.2036634268828,220.4424L385.06732366492344,214.2L388.80634970173696,208.692L392.6700099397776,208.07999999999998L396.4090359765911,206.856L400.2726962146317,208.07999999999998L404.1363564526723,211.14L407.87538248948584,220.32L411.73904272752645,226.44L415.47806876434,226.44L419.3417290023806,220.932L423.2053892404212,220.32L426.6951468747805,220.32L430.5588071128211,208.07999999999998L434.29783314963464,201.95999999999998L438.16149338767525,195.84L441.9005194244888,189.72L445.7641796625294,189.8424L449.62783990057,192.78L453.3668659373835,195.84L457.2305261754242,196.452L460.9695522122377,196.452L464.8332124502783,195.84L468.696872688319,195.84L472.3112645239054,195.84L476.174924761946,184.212L479.9139507987595,191.55599999999998L483.7776110368001,197.676L487.51663707361365,208.07999999999998L491.38029731165426,216.15839999999997L495.24395754969487,227.664L498.9829835865084,238.68L502.846643824549,244.8L506.58566986136253,244.8L510.44933009940314,244.9224L514.3129903374438,244.9224L517.8027479718031,245.412L521.6664082098437,244.8L525.4054342466573,244.8L529.2690944846978,232.56L533.0081205215114,223.38L536.8717807595519,220.32L540.7354409975926,214.2L544.4744670344061,220.32L548.3381272724467,217.62720000000002L552.0771533092602,208.07999999999998L555.9408135473009,195.9624L559.8044737853414,186.66L563.2942314197007,183.6L567.1578916577414,159.12L570.8969176945549,143.82L574.7605779325955,122.4" stroke="rgb(255,202,118)" id="NYC Average" style="mix-blend-mode: normal; fill: none; stroke-width: 2; stroke-linejoin: round; stroke-linecap: round; stroke: rgb(255, 202, 118);"/></g><g id="Williamsburg-svg"><path d="M9.669109568846997,244.8L13.532769806887623,244.8L17.0225274412469,244.8L20.886187679287527,232.56L24.625213716101037,229.5L28.488873954141667,220.32L32.22789999095518,211.14L36.0915602289958,204.40800000000002L39.95522046703643,195.84L43.694246503849946,189.72L47.55790674189057,208.07999999999998L51.296932778704075,217.5048L55.160593016744706,208.07999999999998L59.024253254785336,214.2L62.51401088914461,212.60879999999997L66.37767112718524,195.84L70.11669716399875,195.84L73.98035740203937,186.90480000000002L77.71938343885289,195.84L81.58304367689351,195.84L85.44670391493413,186.90480000000002L89.18572995174765,183.6L93.04939018978828,183.6L96.7884162266018,201.95999999999998L100.65207646464242,179.6832L104.51573670268304,183.6L108.13012853826945,183.6L111.99378877631007,174.42000000000002L115.73281481312357,165.23999999999998L119.5964750511642,153L123.3355010879777,159.12L127.19916132601833,171.35999999999999L131.06282156405896,143.82L134.8018476008725,140.76L138.6655078389131,140.76L142.40453387572663,122.5224L146.26819411376724,134.64L150.13185435180787,146.88L153.62161198616712,159.12L157.48527222420776,183.6L161.2242982610213,165.23999999999998L165.08795849906193,153L168.82698453587543,159.12L172.69064477391606,159.2424L176.55430501195667,160.344L180.2933310487702,171.35999999999999L184.1569912868108,171.35999999999999L187.89601732362433,184.212L191.75967756166494,183.6L195.62333779970558,183.6L199.11309543406486,174.9096L202.97675567210547,159.12L206.715781708919,159.12L210.5794419469596,153L214.31846798377313,153L218.18212822181374,159.12L222.04578845985438,159.12L225.78481449666788,164.38320000000002L229.64847473470851,177.48000000000002L233.387500771522,177.48000000000002L237.25116100956265,177.48000000000002L241.1148212476033,177.48000000000002L244.60457888196254,175.032L248.4682391200032,171.35999999999999L252.2072651568167,165.23999999999998L256.07092539485734,146.88L259.80995143167087,137.088L263.6736116697115,146.88L267.5372719077521,159.12L271.2762979445656,158.508L275.1399581826062,153L278.87898421941975,146.88L282.74264445746036,149.94L286.60630469550097,159.12L290.2206965310874,171.35999999999999L294.084356769128,171.35999999999999L297.82338280594155,159.732L301.68704304398216,159.2424L305.4260690807957,159.732L309.2897293188363,159.12L313.15338955687696,165.23999999999998L316.89241559369043,165.23999999999998L320.7560758317311,171.35999999999999L324.49510186854457,177.48000000000002L328.35876210658523,183.6L332.22242234462584,183.6L335.7121799789851,177.48000000000002L339.57584021702576,171.35999999999999L343.3148662538392,166.7088L347.1785264918799,162.18L350.91755252869336,169.6464L354.78121276673403,169.6464L358.64487300477464,171.35999999999999L362.38389904158817,183.6L366.2475592796288,187.88400000000001L369.9865853164423,195.84L373.8502455544829,195.84L377.7139057925235,189.72L381.2036634268828,189.72L385.06732366492344,183.7224L388.80634970173696,183.6L392.6700099397776,183.6L396.4090359765911,183.6L400.2726962146317,183.6L404.1363564526723,183.7224L407.87538248948584,183.7224L411.73904272752645,195.84L415.47806876434,196.6968L419.3417290023806,185.0688L423.2053892404212,183.6L426.6951468747805,183.6L430.5588071128211,159.12L434.29783314963464,147.00240000000002L438.16149338767525,146.88L441.9005194244888,130.1112L445.7641796625294,130.1112L449.62783990057,122.4L453.3668659373835,122.4L457.2305261754242,110.16L460.9695522122377,110.16L464.8332124502783,122.4L468.696872688319,122.5224L472.3112645239054,122.5224L476.174924761946,123.012L479.9139507987595,146.88L483.7776110368001,159.2424L487.51663707361365,165.23999999999998L491.38029731165426,183.6L495.24395754969487,195.84L498.9829835865084,204.0408L502.846643824549,208.07999999999998L506.58566986136253,208.07999999999998L510.44933009940314,209.304L514.3129903374438,208.07999999999998L517.8027479718031,207.46800000000002L521.6664082098437,208.07999999999998L525.4054342466573,201.95999999999998L529.2690944846978,174.42000000000002L533.0081205215114,134.64L536.8717807595519,103.18320000000003L540.7354409975926,84.21119999999999L544.4744670344061,100.97999999999999L548.3381272724467,91.80000000000001L552.0771533092602,73.44L555.9408135473009,85.68L559.8044737853414,67.32L563.2942314197007,84.70080000000002L567.1578916577414,61.19999999999999L570.8969176945549,61.19999999999999L574.7605779325955,18.360000000000014" stroke="rgb(250,140,0)" id="Williamsburg" style="mix-blend-mode: normal; fill: none; stroke-width: 2; stroke-linejoin: round; stroke-linecap: round; stroke: rgb(250, 140, 0);"/></g><g id="Upper-svg East-svg Side-svg"><path d="M9.669109568846997,250.92000000000002L13.532769806887623,250.92000000000002L17.0225274412469,257.04L20.886187679287527,244.8L24.625213716101037,238.68L28.488873954141667,238.68L32.22789999095518,233.172L36.0915602289958,244.8L39.95522046703643,233.172L43.694246503849946,238.68L47.55790674189057,244.8L51.296932778704075,238.68L55.160593016744706,244.8L59.024253254785336,244.8L62.51401088914461,250.92000000000002L66.37767112718524,244.8L70.11669716399875,232.56L73.98035740203937,220.932L77.71938343885289,226.44L81.58304367689351,220.932L85.44670391493413,208.692L89.18572995174765,208.07999999999998L93.04939018978828,208.07999999999998L96.7884162266018,208.07999999999998L100.65207646464242,220.32L104.51573670268304,220.32L108.13012853826945,220.932L111.99378877631007,220.932L115.73281481312357,220.932L119.5964750511642,214.2L123.3355010879777,220.32L127.19916132601833,214.2L131.06282156405896,201.95999999999998L134.8018476008725,208.692L138.6655078389131,201.95999999999998L142.40453387572663,201.95999999999998L146.26819411376724,208.692L150.13185435180787,208.07999999999998L153.62161198616712,208.692L157.48527222420776,214.2L161.2242982610213,214.2L165.08795849906193,214.2L168.82698453587543,214.2L172.69064477391606,208.07999999999998L176.55430501195667,196.452L180.2933310487702,201.95999999999998L184.1569912868108,208.07999999999998L187.89601732362433,208.07999999999998L191.75967756166494,220.32L195.62333779970558,208.692L199.11309543406486,220.32L202.97675567210547,220.32L206.715781708919,220.32L210.5794419469596,220.32L214.31846798377313,217.26L218.18212822181374,220.32L222.04578845985438,214.2L225.78481449666788,214.2L229.64847473470851,208.07999999999998L233.387500771522,202.0824L237.25116100956265,201.95999999999998L241.1148212476033,195.84L244.60457888196254,195.9624L248.4682391200032,198.9L252.2072651568167,189.72L256.07092539485734,184.212L259.80995143167087,189.72L263.6736116697115,184.212L267.5372719077521,178.5816L271.2762979445656,183.9672L275.1399581826062,195.84L278.87898421941975,188.1288L282.74264445746036,184.212L286.60630469550097,186.41520000000003L290.2206965310874,183.6L294.084356769128,183.6L297.82338280594155,183.6L301.68704304398216,184.212L305.4260690807957,184.824L309.2897293188363,192.78L313.15338955687696,189.72L316.89241559369043,189.72L320.7560758317311,186.66L324.49510186854457,183.6L328.35876210658523,184.212L332.22242234462584,184.212L335.7121799789851,192.78L339.57584021702576,189.72L343.3148662538392,189.72L347.1785264918799,189.72L350.91755252869336,189.72L354.78121276673403,195.84L358.64487300477464,184.212L362.38389904158817,189.72L366.2475592796288,184.212L369.9865853164423,185.43599999999998L373.8502455544829,195.84L377.7139057925235,196.452L381.2036634268828,201.95999999999998L385.06732366492344,201.95999999999998L388.80634970173696,201.95999999999998L392.6700099397776,195.84L396.4090359765911,194.61599999999999L400.2726962146317,195.84L404.1363564526723,196.452L407.87538248948584,184.212L411.73904272752645,184.212L415.47806876434,183.6L419.3417290023806,183.6L423.2053892404212,183.6L426.6951468747805,184.212L430.5588071128211,184.212L434.29783314963464,183.6L438.16149338767525,177.48000000000002L441.9005194244888,177.48000000000002L445.7641796625294,184.212L449.62783990057,183.6L453.3668659373835,171.35999999999999L457.2305261754242,158.14079999999998L460.9695522122377,147.492L464.8332124502783,149.94L468.696872688319,153L472.3112645239054,153L476.174924761946,163.6488L479.9139507987595,176.868L483.7776110368001,189.72L487.51663707361365,208.07999999999998L491.38029731165426,220.32L495.24395754969487,226.44L498.9829835865084,244.8L502.846643824549,245.412L506.58566986136253,244.9224L510.44933009940314,250.92000000000002L514.3129903374438,250.67520000000002L517.8027479718031,257.04L521.6664082098437,257.04L525.4054342466573,248.472L529.2690944846978,245.412L533.0081205215114,238.68L536.8717807595519,220.32L540.7354409975926,201.95999999999998L544.4744670344061,192.78L548.3381272724467,159.12L552.0771533092602,146.88L555.9408135473009,134.64L559.8044737853414,122.4L563.2942314197007,134.64L567.1578916577414,134.64L570.8969176945549,122.4L574.7605779325955,122.4" stroke="rgb(99,62,0)" id="Upper East Side" style="mix-blend-mode: normal; fill: none; stroke-width: 2; stroke-linejoin: round; stroke-linecap: round; stroke: rgb(99, 62, 0);"/></g></g><g id="line-symbols-svg"><path d="M -1,0 a 1,1 0 1,0 2,0 a 1,1 0 1,0 -2,0 Z" id="NYC Average" transform="translate(9.669109568846997, 226.44) scale(3.5)" style="mix-blend-mode: normal; fill: rgb(255, 202, 118);"/><path d="M -1,0 a 1,1 0 1,0 2,0 a 1,1 0 1,0 -2,0 Z" id="NYC Average" transform="translate(574.7605779325955, 122.4) scale(3.5)" style="mix-blend-mode: normal; fill: rgb(255, 202, 118);"/><path d="M -1,0 a 1,1 0 1,0 2,0 a 1,1 0 1,0 -2,0 Z" id="Williamsburg" transform="translate(9.669109568846997, 244.8) scale(3.5)" style="mix-blend-mode: normal; fill: rgb(250, 140, 0);"/><path d="M -1,0 a 1,1 0 1,0 2,0 a 1,1 0 1,0 -2,0 Z" id="Williamsburg" transform="translate(574.7605779325955, 18.360000000000014) scale(3.5)" style="mix-blend-mode: normal; fill: rgb(250, 140, 0);"/><path d="M -1,0 a 1,1 0 1,0 2,0 a 1,1 0 1,0 -2,0 Z" id="Upper East Side" transform="translate(9.669109568846997, 250.92000000000002) scale(3.5)" style="mix-blend-mode: normal; fill: rgb(99, 62, 0);"/><path d="M -1,0 a 1,1 0 1,0 2,0 a 1,1 0 1,0 -2,0 Z" id="Upper East Side" transform="translate(574.7605779325955, 122.4) scale(3.5)" style="mix-blend-mode: normal; fill: rgb(99, 62, 0);"/></g><g id="x-tick-labels-svg grid-x-svg date-axis-svg datawrapper-sLP7h-63wp0p-svg" transform="translate(0, 311)"><text transform="translate(9.669109568846997, 12) translate(-13.60742, 0.00000) translate(13.607421875, 0)" style="text-anchor: middle;"><tspan fill="rgb(116, 116, 116)" style="font-family: Roboto; font-weight: 400; font-stretch: 100%; font-size: 12px;" x="0" dominant-baseline="auto" y="0">2010</tspan></text><text transform="translate(55.160593016744706, 12) translate(-13.47656, 0.00000) translate(13.4765625, 0)" style="text-anchor: middle;"><tspan fill="rgb(116, 116, 116)" style="font-family: Roboto; font-weight: 400; font-stretch: 100%; font-size: 12px;" x="0" dominant-baseline="auto" y="0">2011</tspan></text><text transform="translate(100.65207646464242, 12) translate(-13.60742, 0.00000) translate(13.607418060302734, 0)" style="text-anchor: middle;"><tspan fill="rgb(116, 116, 116)" style="font-family: Roboto; font-weight: 400; font-stretch: 100%; font-size: 12px;" x="0" dominant-baseline="auto" y="0">2012</tspan></text><text transform="translate(146.26819411376724, 12) translate(-13.47656, 0.00000) translate(13.4765625, 0)" style="text-anchor: middle;"><tspan fill="rgb(116, 116, 116)" style="font-family: Roboto; font-weight: 400; font-stretch: 100%; font-size: 12px;" x="0" dominant-baseline="auto" y="0">2013</tspan></text><text transform="translate(191.75967756166494, 12) translate(-13.60742, 0.00000) translate(13.607421875, 0)" style="text-anchor: middle;"><tspan fill="rgb(116, 116, 116)" style="font-family: Roboto; font-weight: 400; font-stretch: 100%; font-size: 12px;" x="0" dominant-baseline="auto" y="0">2014</tspan></text><text transform="translate(237.25116100956265, 12) translate(-13.60742, 0.00000) translate(13.607421875, 0)" style="text-anchor: middle;"><tspan fill="rgb(116, 116, 116)" style="font-family: Roboto; font-weight: 400; font-stretch: 100%; font-size: 12px;" x="0" dominant-baseline="auto" y="0">2015</tspan></text><text transform="translate(282.74264445746036, 12) translate(-13.60742, 0.00000) translate(13.607421875, 0)" style="text-anchor: middle;"><tspan fill="rgb(116, 116, 116)" style="font-family: Roboto; font-weight: 400; font-stretch: 100%; font-size: 12px;" x="0" dominant-baseline="auto" y="0">2016</tspan></text><text transform="translate(328.35876210658523, 12) translate(-13.60742, 0.00000) translate(13.607421875, 0)" style="text-anchor: middle;"><tspan fill="rgb(116, 116, 116)" style="font-family: Roboto; font-weight: 400; font-stretch: 100%; font-size: 12px;" x="0" dominant-baseline="auto" y="0">2017</tspan></text><text transform="translate(373.8502455544829, 12) translate(-13.60742, 0.00000) translate(13.607421875, 0)" style="text-anchor: middle;"><tspan fill="rgb(116, 116, 116)" style="font-family: Roboto; font-weight: 400; font-stretch: 100%; font-size: 12px;" x="0" dominant-baseline="auto" y="0">2018</tspan></text><text transform="translate(419.3417290023806, 12) translate(-13.47656, 0.00000) translate(13.4765625, 0)" style="text-anchor: middle;"><tspan fill="rgb(116, 116, 116)" style="font-family: Roboto; font-weight: 400; font-stretch: 100%; font-size: 12px;" x="0" dominant-baseline="auto" y="0">2019</tspan></text><text transform="translate(464.8332124502783, 12) translate(-13.60744, 0.00000) translate(13.607437133789062, 0)" style="text-anchor: middle;"><tspan fill="rgb(116, 116, 116)" style="font-family: Roboto; font-weight: 400; font-stretch: 100%; font-size: 12px;" x="0" dominant-baseline="auto" y="0">2020</tspan></text><text transform="translate(510.44933009940314, 12) translate(-13.47656, 0.00000) translate(13.4765625, 0)" style="text-anchor: middle;"><tspan fill="rgb(116, 116, 116)" style="font-family: Roboto; font-weight: 400; font-stretch: 100%; font-size: 12px;" x="0" dominant-baseline="auto" y="0">2021</tspan></text><text transform="translate(555.9408135473009, 12) translate(-13.60742, 0.00000) translate(13.607421875, 0)" style="text-anchor: middle;"><tspan fill="rgb(116, 116, 116)" style="font-family: Roboto; font-weight: 400; font-stretch: 100%; font-size: 12px;" x="0" dominant-baseline="auto" y="0">2022</tspan></text></g><g id="x-base-lines-svg grid-x-svg datawrapper-sLP7h-1io9s9d-svg"/><g id="y-tick-labels-svg grid-y-svg number-axis-svg datawrapper-sLP7h-yhj5g2-svg" transform="translate(-5, 0)"><text transform="translate(0, 310) translate(-29.57031, 0.00000) translate(29.5703125, 0)" style="text-anchor: end;"><tspan fill="rgb(162, 162, 162)" style="font-family: Roboto; font-weight: 400; font-stretch: 100%; font-size: 12px;" x="0" dominant-baseline="auto" y="0">2,000</tspan></text><text transform="translate(0, 285.52) translate(-29.57031, 0.00000) translate(29.5703125, 0)" style="text-anchor: end;"><tspan fill="rgb(162, 162, 162)" style="font-family: Roboto; font-weight: 400; font-stretch: 100%; font-size: 12px;" x="0" dominant-baseline="auto" y="0">2,200</tspan></text><text transform="translate(0, 261.04) translate(-29.57031, 0.00000) translate(29.5703125, 0)" style="text-anchor: end;"><tspan fill="rgb(162, 162, 162)" style="font-family: Roboto; font-weight: 400; font-stretch: 100%; font-size: 12px;" x="0" dominant-baseline="auto" y="0">2,400</tspan></text><text transform="translate(0, 236.56) translate(-29.57031, 0.00000) translate(29.5703125, 0)" style="text-anchor: end;"><tspan fill="rgb(162, 162, 162)" style="font-family: Roboto; font-weight: 400; font-stretch: 100%; font-size: 12px;" x="0" dominant-baseline="auto" y="0">2,600</tspan></text><text transform="translate(0, 212.07999999999998) translate(-29.57031, 0.00000) translate(29.5703125, 0)" style="text-anchor: end;"><tspan fill="rgb(162, 162, 162)" style="font-family: Roboto; font-weight: 400; font-stretch: 100%; font-size: 12px;" x="0" dominant-baseline="auto" y="0">2,800</tspan></text><text transform="translate(0, 187.6) translate(-29.57031, 0.00000) translate(29.5703125, 0)" style="text-anchor: end;"><tspan fill="rgb(162, 162, 162)" style="font-family: Roboto; font-weight: 400; font-stretch: 100%; font-size: 12px;" x="0" dominant-baseline="auto" y="0">3,000</tspan></text><text transform="translate(0, 163.12) translate(-29.57031, 0.00000) translate(29.5703125, 0)" style="text-anchor: end;"><tspan fill="rgb(162, 162, 162)" style="font-family: Roboto; font-weight: 400; font-stretch: 100%; font-size: 12px;" x="0" dominant-baseline="auto" y="0">3,200</tspan></text><text transform="translate(0, 138.64) translate(-29.57031, 0.00000) translate(29.5703125, 0)" style="text-anchor: end;"><tspan fill="rgb(162, 162, 162)" style="font-family: Roboto; font-weight: 400; font-stretch: 100%; font-size: 12px;" x="0" dominant-baseline="auto" y="0">3,400</tspan></text><text transform="translate(0, 114.16) translate(-29.57031, 0.00000) translate(29.5703125, 0)" style="text-anchor: end;"><tspan fill="rgb(162, 162, 162)" style="font-family: Roboto; font-weight: 400; font-stretch: 100%; font-size: 12px;" x="0" dominant-baseline="auto" y="0">3,600</tspan></text><text transform="translate(0, 89.68) translate(-29.57031, 0.00000) translate(29.5703125, 0)" style="text-anchor: end;"><tspan fill="rgb(162, 162, 162)" style="font-family: Roboto; font-weight: 400; font-stretch: 100%; font-size: 12px;" x="0" dominant-baseline="auto" y="0">3,800</tspan></text><text transform="translate(0, 65.19999999999999) translate(-29.57031, 0.00000) translate(29.5703125, 0)" style="text-anchor: end;"><tspan fill="rgb(162, 162, 162)" style="font-family: Roboto; font-weight: 400; font-stretch: 100%; font-size: 12px;" x="0" dominant-baseline="auto" y="0">4,000</tspan></text><text transform="translate(0, 40.71999999999997) translate(-29.57031, 0.00000) translate(29.5703125, 0)" style="text-anchor: end;"><tspan fill="rgb(162, 162, 162)" style="font-family: Roboto; font-weight: 400; font-stretch: 100%; font-size: 12px;" x="0" dominant-baseline="auto" y="0">4,200</tspan></text><text transform="translate(0, 16.24000000000001) translate(-29.57031, 0.00000) translate(29.5703125, 0)" style="text-anchor: end;"><tspan fill="rgb(162, 162, 162)" style="font-family: Roboto; font-weight: 400; font-stretch: 100%; font-size: 12px;" x="0" dominant-baseline="auto" y="0">4,400</tspan></text></g><g id="y-base-lines-svg grid-y-svg datawrapper-sLP7h-1io9s9d-svg"/></g></g><text transform="translate(619.984375, 171.390625)" id="NYC Average"><tspan fill="rgb(196,148,67)" x="0" y="12" style="font-family: Roboto; font-weight: 400; font-stretch: 100%; font-size: 12px;">NYC Average</tspan></text><text transform="translate(619.984375, 54.359375)" id="Williamsburg"><tspan fill="rgb(236,128,0)" x="0" y="12" style="font-family: Roboto; font-weight: 400; font-stretch: 100%; font-size: 12px;">Williamsburg</tspan></text><text transform="translate(619.984375, 145.390625)" id="Upper East Side"><tspan fill="rgb(99,62,0)" x="0" y="12" style="font-family: Roboto; font-weight: 400; font-stretch: 100%; font-size: 12px;">Upper East</tspan><tspan fill="rgb(99,62,0)" x="0" y="26" style="font-family: Roboto; font-weight: 400; font-stretch: 100%; font-size: 12px;">Side</tspan></text><g id="tooltip-layer-svg" clip-path="url(#rect-mask-tooltip-layer-MooP6Gj9rFEnbfmZ4XLe4)" transform="translate(0.00000, 35.00000)"><clipPath id="rect-mask-tooltip-layer-MooP6Gj9rFEnbfmZ4XLe4"><rect x="0" y="0" width="700" height="332"/></clipPath><g id="group-svg" transform="translate(35.5703125, 6)"/></g></g><g id="footer-svg"><text transform="translate(0, 387)"><tspan fill="rgb(136,136,136)" x="0" y="11" style="font-family: Roboto; font-weight: 400; font-stretch: 100%; font-size: 11px;">Chart:</tspan><tspan fill="rgb(136,136,136)" style="font-family: Roboto; font-weight: 400; font-stretch: 100%; font-size: 11px;">​ ​</tspan><tspan fill="rgb(136,136,136)" style="font-family: Roboto; font-weight: 400; font-stretch: 100%; font-size: 11px;">Ayuka Kawakami</tspan><tspan fill="rgb(136,136,136)" style="font-family: Roboto; font-weight: 400; font-stretch: 100%; font-size: 11px;">​ ​</tspan><tspan fill="rgb(136,136,136)" style="font-family: Roboto; font-weight: 400; font-stretch: 100%; font-size: 11px;">•</tspan><tspan fill="rgb(136,136,136)" style="font-family: Roboto; font-weight: 400; font-stretch: 100%; font-size: 11px;">​ ​</tspan><tspan fill="rgb(136,136,136)" style="font-family: Roboto; font-weight: 400; font-stretch: 100%; font-size: 11px;">Source</tspan><tspan fill="rgb(136,136,136)" style="font-family: Roboto; font-weight: 400; font-stretch: 100%; font-size: 11px;">:</tspan><tspan fill="rgb(136,136,136)" style="font-family: Roboto; font-weight: 400; font-stretch: 100%; font-size: 11px;">​ ​</tspan><tspan fill="rgb(136,136,136)" style="font-family: Roboto; font-weight: 400; font-stretch: 100%; font-size: 11px;">StreetEasy</tspan><tspan fill="rgb(136,136,136)" style="font-family: Roboto; font-weight: 400; font-stretch: 100%; font-size: 11px;">​ ​</tspan><tspan fill="rgb(136,136,136)" style="font-family: Roboto; font-weight: 400; font-stretch: 100%; font-size: 11px;">•</tspan><tspan fill="rgb(136,136,136)" style="font-family: Roboto; font-weight: 400; font-stretch: 100%; font-size: 11px;">​ ​</tspan><tspan fill="rgb(136,136,136)" style="font-family: Roboto; font-weight: 400; font-stretch: 100%; font-size: 11px;">Created with</tspan><tspan fill="rgb(136,136,136)" style="font-family: Roboto; font-weight: 400; font-stretch: 100%; font-size: 11px;">​ ​</tspan><tspan fill="rgb(136,136,136)" style="font-family: Roboto; font-weight: 400; font-stretch: 100%; font-size: 11px;">Datawrapper</tspan></text></g></g></g></svg>