<?xml version="1.0" encoding="utf-8"?>
<!-- Generator: Adobe Illustrator 26.3.1, SVG Export Plug-In . SVG Version: 6.00 Build 0)  -->
<svg version="1.2" baseProfile="tiny" id="g-Williamsberg_Gentrification_FINAL-EDITED-Artboard_1-interactions-img" xmlns="http://www.w3.org/2000/svg" xmlns:xlink="http://www.w3.org/1999/xlink"
	 x="0px" y="0px" viewBox="0 0 800 600" overflow="visible" xml:space="preserve">
<g>
	<g id="North4_00000062186567631719691790000003928829839215413161_">
		<path fill="#09BB9F" d="M501.066,289.998c0,2.865-2.368,5.188-5.29,5.188s-5.29-2.323-5.29-5.188c0-2.865,2.368-5.188,5.29-5.188
			S501.066,287.133,501.066,289.998z"/>
		<path fill="#FA8C00" d="M496.027,297.41c0,2.865-2.368,5.188-5.29,5.188c-2.922,0-5.29-2.323-5.29-5.188s2.368-5.188,5.29-5.188
			C493.659,292.222,496.027,294.545,496.027,297.41z"/>
	</g>
	<g id="Grand_00000073679849272872078580000014270651940553965471_">
		<path fill="#09BB9F" d="M469.705,438.001c0,2.865-2.368,5.188-5.29,5.188s-5.29-2.323-5.29-5.188s2.368-5.188,5.29-5.188
			S469.705,435.136,469.705,438.001z"/>
		<path fill="#FA8C00" d="M469.705,449.119c0,2.865-2.368,5.188-5.29,5.188s-5.29-2.323-5.29-5.188s2.368-5.188,5.29-5.188
			S469.705,446.253,469.705,449.119z"/>
	</g>
	<g id="North1_00000062880659168537481810000009131170731621046444_">
		<path fill="#09BB9F" d="M376.368,324.587c0,2.865-2.368,5.188-5.29,5.188c-2.922,0-5.29-2.323-5.29-5.188
			c0-2.865,2.368-5.188,5.29-5.188C374,319.399,376.368,321.722,376.368,324.587z"/>
		<path fill="#FA8C00" d="M368.811,329.528c0,2.865-2.368,5.188-5.29,5.188c-2.922,0-5.29-2.323-5.29-5.188s2.368-5.188,5.29-5.188
			C366.443,324.34,368.811,326.663,368.811,329.528z"/>
	</g>
	<g id="Metro_00000173855739352525388680000000939105578621007239_">
		<path fill="#09BB9F" d="M382.666,307.293c0,2.865-2.368,5.188-5.29,5.188s-5.29-2.323-5.29-5.188s2.368-5.188,5.29-5.188
			S382.666,304.427,382.666,307.293z"/>
		<path fill="#FA8C00" d="M372.59,299.881c0,2.865-2.368,5.188-5.29,5.188s-5.29-2.323-5.29-5.188c0-2.865,2.368-5.188,5.29-5.188
			S372.59,297.015,372.59,299.881z"/>
	</g>
	<g id="North5_00000115486807342983417410000003119218232996922549_">
		<path fill="#09BB9F" d="M456.981,218.35c0,2.865-2.368,5.188-5.29,5.188s-5.29-2.323-5.29-5.188s2.368-5.188,5.29-5.188
			S456.981,215.485,456.981,218.35z"/>
		<path fill="#FA8C00" d="M446.907,209.706c0,2.185-1.806,3.956-4.034,3.956c-2.228,0-4.034-1.771-4.034-3.956
			s1.806-3.956,4.034-3.956C445.101,205.75,446.907,207.521,446.907,209.706z"/>
	</g>
	<g id="North9_00000037659286423379002640000007084028721895978375_">
		<path fill="#FA8C00" d="M581.144,112.804c0,2.865-2.368,5.188-5.29,5.188s-5.29-2.323-5.29-5.188c0-2.865,2.369-5.188,5.29-5.188
			S581.144,109.938,581.144,112.804z"/>
		<path fill="#09BB9F" d="M588.701,117.745c0,2.865-2.369,5.188-5.29,5.188s-5.29-2.323-5.29-5.188c0-2.865,2.368-5.188,5.29-5.188
			S588.701,114.88,588.701,117.745z"/>
	</g>
	<g id="South1_00000085950591790696542440000007788171131219649161_">
		<path fill="#09BB9F" d="M411.636,439.471c0,2.865-2.368,5.188-5.29,5.188s-5.29-2.323-5.29-5.188c0-2.865,2.368-5.188,5.29-5.188
			S411.636,436.606,411.636,439.471z"/>
		<path fill="#FA8C00" d="M417.934,430.824c0,2.865-2.368,5.188-5.29,5.188s-5.29-2.323-5.29-5.188c0-2.865,2.368-5.188,5.29-5.188
			S417.934,427.959,417.934,430.824z"/>
	</g>
</g>
<style>
#g-Williamsberg_Gentrification_FINAL-EDITED-Artboard_1-interactions-img rect, #g-Williamsberg_Gentrification_FINAL-EDITED-Artboard_1-interactions-img circle, #g-Williamsberg_Gentrification_FINAL-EDITED-Artboard_1-interactions-img path, #g-Williamsberg_Gentrification_FINAL-EDITED-Artboard_1-interactions-img line, #g-Williamsberg_Gentrification_FINAL-EDITED-Artboard_1-interactions-img polyline, #g-Williamsberg_Gentrification_FINAL-EDITED-Artboard_1-interactions-img polygon { vector-effect: non-scaling-stroke; }
</style>
</svg>

