<?xml version="1.0" encoding="utf-8"?>
<!-- Generator: Adobe Illustrator 27.0.0, SVG Export Plug-In . SVG Version: 6.00 Build 0)  -->
<svg version="1.2" baseProfile="tiny" id="g-Williamsberg_Gentrification_FINAL-EDITED-Artboard_1-interactions-img" xmlns="http://www.w3.org/2000/svg" xmlns:xlink="http://www.w3.org/1999/xlink"
	 x="0px" y="0px" viewBox="0 0 800 600" overflow="visible" xml:space="preserve">
<g>
	<g id="North4_00000038378436773741907170000004041346943494281862_">
		<path fill="#83C5BE" d="M501.066,289.998c0,2.865-2.368,5.188-5.29,5.188s-5.29-2.323-5.29-5.188c0-2.865,2.368-5.188,5.29-5.188
			S501.066,287.133,501.066,289.998z"/>
		<path fill="#FAAE7B" d="M496.027,297.41c0,2.865-2.368,5.188-5.29,5.188c-2.922,0-5.29-2.323-5.29-5.188s2.368-5.188,5.29-5.188
			C493.659,292.222,496.027,294.545,496.027,297.41z"/>
	</g>
	<g id="Grand_00000134955823291968560850000008629095944304514477_">
		<path fill="#83C5BE" d="M469.705,438.001c0,2.865-2.368,5.188-5.29,5.188s-5.29-2.323-5.29-5.188s2.368-5.188,5.29-5.188
			S469.705,435.136,469.705,438.001z"/>
		<path fill="#FAAE7B" d="M469.705,449.119c0,2.865-2.368,5.188-5.29,5.188s-5.29-2.323-5.29-5.188s2.368-5.188,5.29-5.188
			S469.705,446.253,469.705,449.119z"/>
	</g>
	<g id="North1_00000041287082991716368570000000539527865879447478_">
		<path fill="#83C5BE" d="M376.368,324.587c0,2.865-2.368,5.188-5.29,5.188c-2.922,0-5.29-2.323-5.29-5.188
			c0-2.865,2.368-5.188,5.29-5.188C374,319.399,376.368,321.722,376.368,324.587z"/>
		<path fill="#FAAE7B" d="M368.811,329.528c0,2.865-2.368,5.188-5.29,5.188c-2.922,0-5.29-2.323-5.29-5.188s2.368-5.188,5.29-5.188
			C366.443,324.34,368.811,326.663,368.811,329.528z"/>
	</g>
	<g id="Metro_00000160191153558000769320000003645885848697497764_">
		<path fill="#83C5BE" d="M382.666,307.293c0,2.865-2.368,5.188-5.29,5.188s-5.29-2.323-5.29-5.188s2.368-5.188,5.29-5.188
			S382.666,304.427,382.666,307.293z"/>
		<path fill="#FAAE7B" d="M372.59,299.881c0,2.865-2.368,5.188-5.29,5.188s-5.29-2.323-5.29-5.188c0-2.865,2.368-5.188,5.29-5.188
			S372.59,297.015,372.59,299.881z"/>
	</g>
	<g id="North5_00000170977761485059762620000010745133181394092689_">
		<path fill="#83C5BE" d="M456.981,218.35c0,2.865-2.368,5.188-5.29,5.188s-5.29-2.323-5.29-5.188s2.368-5.188,5.29-5.188
			S456.981,215.485,456.981,218.35z"/>
		<path fill="#FAAE7B" d="M446.907,209.706c0,2.185-1.806,3.956-4.034,3.956c-2.228,0-4.034-1.771-4.034-3.956
			s1.806-3.956,4.034-3.956C445.101,205.75,446.907,207.521,446.907,209.706z"/>
	</g>
	<g id="North9_00000137097965662022629900000013191250112036904637_">
		<path fill="#FAAE7B" d="M581.144,112.804c0,2.865-2.368,5.188-5.29,5.188s-5.29-2.323-5.29-5.188c0-2.865,2.369-5.188,5.29-5.188
			S581.144,109.938,581.144,112.804z"/>
		<path fill="#83C5BE" d="M588.701,117.745c0,2.865-2.369,5.188-5.29,5.188s-5.29-2.323-5.29-5.188c0-2.865,2.368-5.188,5.29-5.188
			S588.701,114.88,588.701,117.745z"/>
	</g>
	<g id="South1_00000158739294099433999370000001702257077851281808_">
		<path fill="#83C5BE" d="M411.636,439.471c0,2.865-2.368,5.188-5.29,5.188s-5.29-2.323-5.29-5.188c0-2.865,2.368-5.188,5.29-5.188
			S411.636,436.606,411.636,439.471z"/>
		<path fill="#FAAE7B" d="M417.934,430.824c0,2.865-2.368,5.188-5.29,5.188s-5.29-2.323-5.29-5.188c0-2.865,2.368-5.188,5.29-5.188
			S417.934,427.959,417.934,430.824z"/>
	</g>
</g>
<style>
#g-Williamsberg_Gentrification_FINAL-EDITED-Artboard_1-interactions-img rect, #g-Williamsberg_Gentrification_FINAL-EDITED-Artboard_1-interactions-img circle, #g-Williamsberg_Gentrification_FINAL-EDITED-Artboard_1-interactions-img path, #g-Williamsberg_Gentrification_FINAL-EDITED-Artboard_1-interactions-img line, #g-Williamsberg_Gentrification_FINAL-EDITED-Artboard_1-interactions-img polyline, #g-Williamsberg_Gentrification_FINAL-EDITED-Artboard_1-interactions-img polygon { vector-effect: non-scaling-stroke; }
</style>
</svg>

