<?xml version="1.0" encoding="utf-8"?>
<!-- Generator: Adobe Illustrator 27.0.0, SVG Export Plug-In . SVG Version: 6.00 Build 0)  -->
<svg version="1.2" baseProfile="tiny" id="g-Williamsberg_Gentrification_FINAL-EDITED-Artboard_1-interactions-img" xmlns="http://www.w3.org/2000/svg" xmlns:xlink="http://www.w3.org/1999/xlink"
	 x="0px" y="0px" viewBox="0 0 800 600" overflow="visible" xml:space="preserve">
<g>
	<g>
		<path fill="#83C5BE" d="M508.966,289.308c0,4.429-3.66,8.019-8.176,8.019s-8.176-3.59-8.176-8.019
			c0-4.428,3.661-8.019,8.176-8.019S508.966,284.88,508.966,289.308z"/>
		<path fill="#FAAE7B" d="M498.179,306.763c0,4.429-3.66,8.019-8.176,8.019s-8.176-3.59-8.176-8.019s3.661-8.019,8.176-8.019
			S498.179,302.335,498.179,306.763z"/>
	</g>
	<g id="Grand_00000183245927152423192860000011447121865165331880_">
		<path fill="#83C5BE" d="M478.909,437.114c0,5.269-4.355,9.54-9.727,9.54c-5.372,0-9.727-4.271-9.727-9.54
			c0-5.269,4.355-9.54,9.727-9.54C474.554,427.574,478.909,431.846,478.909,437.114z"/>
		<path fill="#FAAE7B" d="M478.909,457.557c0,5.269-4.355,9.54-9.727,9.54c-5.372,0-9.727-4.271-9.727-9.54
			c0-5.269,4.355-9.54,9.727-9.54C474.554,448.017,478.909,452.289,478.909,457.557z"/>
	</g>
	<g>
		<path fill="#83C5BE" d="M376.368,333.362c0,5.389-4.454,9.757-9.948,9.757s-9.948-4.368-9.948-9.757
			c0-5.389,4.454-9.757,9.948-9.757S376.368,327.973,376.368,333.362z"/>
		<path fill="#FAAE7B" d="M362.451,348.808c0,5.389-4.454,9.757-9.948,9.757s-9.948-4.368-9.948-9.757
			c0-5.389,4.454-9.757,9.948-9.757S362.451,343.419,362.451,348.808z"/>
	</g>
	<g id="Metro_00000051366096839206484680000010773732268690846625_">
		<path fill="#83C5BE" d="M402.854,295.983c0,4.513-3.731,8.172-8.333,8.172s-8.333-3.659-8.333-8.172
			c0-4.513,3.731-8.172,8.333-8.172S402.854,291.47,402.854,295.983z"/>
		<path fill="#FAAE7B" d="M386.983,284.309c0,4.513-3.731,8.172-8.333,8.172s-8.333-3.659-8.333-8.172s3.731-8.172,8.333-8.172
			S386.983,279.795,386.983,284.309z"/>
	</g>
	<g>
		<path fill="#83C5BE" d="M454.956,233.947c0,4.419-3.653,8.002-8.159,8.002c-4.506,0-8.159-3.583-8.159-8.002
			c0-4.419,3.653-8.002,8.159-8.002C451.303,225.945,454.956,229.528,454.956,233.947z"/>
		<path fill="#FAAE7B" d="M441.851,218.165c0,4.582-3.788,8.297-8.46,8.297s-8.46-3.715-8.46-8.297s3.788-8.297,8.46-8.297
			S441.851,213.583,441.851,218.165z"/>
	</g>
	<g>
		<path fill="#FAAE7B" d="M579.141,91.209c0,5.176-4.278,9.371-9.555,9.371c-5.277,0-9.555-4.196-9.555-9.371
			c0-5.176,4.278-9.371,9.555-9.371C574.863,81.838,579.141,86.034,579.141,91.209z"/>
		<path fill="#83C5BE" d="M597.792,107.134c0,5.176-4.278,9.371-9.555,9.371s-9.555-4.196-9.555-9.371s4.278-9.371,9.555-9.371
			S597.792,101.958,597.792,107.134z"/>
	</g>
	<g id="South1_00000073684268544082103180000009024166592067432377_">
		<path fill="#83C5BE" d="M411.464,443.733c0,4.557-3.766,8.25-8.412,8.25c-4.646,0-8.412-3.694-8.412-8.25s3.766-8.25,8.412-8.25
			C407.697,435.482,411.464,439.176,411.464,443.733z"/>
		<path fill="#FAAE7B" d="M421.479,429.982c0,4.557-3.766,8.25-8.412,8.25c-4.646,0-8.412-3.694-8.412-8.25s3.766-8.25,8.412-8.25
			C417.712,421.731,421.479,425.425,421.479,429.982z"/>
	</g>
</g>
<style>
#g-Williamsberg_Gentrification_FINAL-EDITED-Artboard_1-interactions-img rect, #g-Williamsberg_Gentrification_FINAL-EDITED-Artboard_1-interactions-img circle, #g-Williamsberg_Gentrification_FINAL-EDITED-Artboard_1-interactions-img path, #g-Williamsberg_Gentrification_FINAL-EDITED-Artboard_1-interactions-img line, #g-Williamsberg_Gentrification_FINAL-EDITED-Artboard_1-interactions-img polyline, #g-Williamsberg_Gentrification_FINAL-EDITED-Artboard_1-interactions-img polygon { vector-effect: non-scaling-stroke; }
</style>
</svg>

